HIERARCHY
ROOT mixamorig:Hips
{
	OFFSET 0.000000 104.274902 0.000000
	CHANNELS 6 Xposition Yposition Zposition Xrotation Yrotation Zrotation
	JOINT mixamorig:Spine
	{
		OFFSET 0.000000 10.181549 0.131524
		CHANNELS 6 Xposition Yposition Zposition Xrotation Yrotation Zrotation
		JOINT mixamorig:Spine1
		{
			OFFSET 0.000000 9.893990 -1.470706
			CHANNELS 3 Xrotation Yrotation Zrotation
			JOINT mixamorig:Spine2
			{
				OFFSET 0.000000 9.220787 -1.370637
				CHANNELS 3 Xrotation Yrotation Zrotation
				JOINT mixamorig:Neck
				{
					OFFSET 0.000000 16.740372 -2.049022
					CHANNELS 6 Xposition Yposition Zposition Xrotation Yrotation Zrotation
					JOINT mixamorig:Head
					{
						OFFSET 0.000000 9.617859 1.684976
						CHANNELS 6 Xposition Yposition Zposition Xrotation Yrotation Zrotation
						JOINT mixamorig:HeadTop_End
						{
							OFFSET 0.000000 22.037384 7.501072
							CHANNELS 6 Xposition Yposition Zposition Xrotation Yrotation Zrotation
							End Site
							{
								OFFSET 0.000000 23.106567 -2.828246
							}
						}
					}
				}
				JOINT mixamorig:RightShoulder
				{
					OFFSET -4.570000 11.014877 -2.160840
					CHANNELS 6 Xposition Yposition Zposition Xrotation Yrotation Zrotation
					JOINT mixamorig:RightArm
					{
						OFFSET -10.592867 -0.524796 -2.232105
						CHANNELS 3 Xrotation Yrotation Zrotation
						JOINT mixamorig:RightForeArm
						{
							OFFSET -27.841497 0.000000 -0.000002
							CHANNELS 3 Xrotation Yrotation Zrotation
							JOINT mixamorig:RightHand
							{
								OFFSET -28.328812 0.000000 -0.000001
								CHANNELS 3 Xrotation Yrotation Zrotation
								JOINT mixamorig:RightHandThumb1
								{
									OFFSET -2.464798 -1.573990 2.681911
									CHANNELS 6 Xposition Yposition Zposition Xrotation Yrotation Zrotation
									JOINT mixamorig:RightHandThumb2
									{
										OFFSET -3.244781 -1.873383 1.873376
										CHANNELS 3 Xrotation Yrotation Zrotation
										JOINT mixamorig:RightHandThumb3
										{
											OFFSET -2.646263 -1.527817 1.527818
											CHANNELS 6 Xposition Yposition Zposition Xrotation Yrotation Zrotation
											JOINT mixamorig:RightHandThumb4
											{
												OFFSET -1.994591 -1.151581 1.151575
												CHANNELS 6 Xposition Yposition Zposition Xrotation Yrotation Zrotation
												End Site
												{
													OFFSET -1.860176 -1.142715 1.365483
												}
											}
										}
									}
								}
								JOINT mixamorig:RightHandIndex1
								{
									OFFSET -9.108299 -0.517883 2.259803
									CHANNELS 6 Xposition Yposition Zposition Xrotation Yrotation Zrotation
									JOINT mixamorig:RightHandIndex2
									{
										OFFSET -3.699997 0.000000 0.000000
										CHANNELS 3 Xrotation Yrotation Zrotation
										JOINT mixamorig:RightHandIndex3
										{
											OFFSET -2.850006 0.000000 0.000000
											CHANNELS 3 Xrotation Yrotation Zrotation
											JOINT mixamorig:RightHandIndex4
											{
												OFFSET -2.772194 0.000000 0.000000
												CHANNELS 3 Xrotation Yrotation Zrotation
												End Site
												{
													OFFSET -2.772202 0.000000 -0.000484
												}
											}
										}
									}
								}
								JOINT mixamorig:RightHandMiddle1
								{
									OFFSET -9.532501 0.000000 -0.000000
									CHANNELS 6 Xposition Yposition Zposition Xrotation Yrotation Zrotation
									JOINT mixamorig:RightHandMiddle2
									{
										OFFSET -3.699997 0.000000 0.000000
										CHANNELS 3 Xrotation Yrotation Zrotation
										JOINT mixamorig:RightHandMiddle3
										{
											OFFSET -2.949997 0.000000 0.000000
											CHANNELS 3 Xrotation Yrotation Zrotation
											JOINT mixamorig:RightHandMiddle4
											{
												OFFSET -2.946594 0.000000 0.000000
												CHANNELS 3 Xrotation Yrotation Zrotation
												End Site
												{
													OFFSET -2.946602 0.000000 -0.000982
												}
											}
										}
									}
								}
								JOINT mixamorig:RightHandRing1
								{
									OFFSET -9.103600 -0.043106 -1.865100
									CHANNELS 6 Xposition Yposition Zposition Xrotation Yrotation Zrotation
									JOINT mixamorig:RightHandRing2
									{
										OFFSET -3.379303 0.000000 0.000000
										CHANNELS 3 Xrotation Yrotation Zrotation
										JOINT mixamorig:RightHandRing3
										{
											OFFSET -2.889694 0.000000 0.000000
											CHANNELS 3 Xrotation Yrotation Zrotation
											JOINT mixamorig:RightHandRing4
											{
												OFFSET -2.638802 0.000000 0.000000
												CHANNELS 3 Xrotation Yrotation Zrotation
												End Site
												{
													OFFSET -2.638802 0.000000 0.004218
												}
											}
										}
									}
								}
								JOINT mixamorig:RightHandPinky1
								{
									OFFSET -8.076698 -0.486725 -3.806299
									CHANNELS 6 Xposition Yposition Zposition Xrotation Yrotation Zrotation
									JOINT mixamorig:RightHandPinky2
									{
										OFFSET -3.600006 0.000000 0.000000
										CHANNELS 3 Xrotation Yrotation Zrotation
										JOINT mixamorig:RightHandPinky3
										{
											OFFSET -2.099998 0.000000 0.000000
											CHANNELS 3 Xrotation Yrotation Zrotation
											JOINT mixamorig:RightHandPinky4
											{
												OFFSET -2.115791 0.000000 0.000000
												CHANNELS 3 Xrotation Yrotation Zrotation
												End Site
												{
													OFFSET -2.115799 0.000000 0.000174
												}
											}
										}
									}
								}
							}
						}
					}
				}
				JOINT mixamorig:LeftShoulder
				{
					OFFSET 4.570400 11.014679 -2.160816
					CHANNELS 6 Xposition Yposition Zposition Xrotation Yrotation Zrotation
					JOINT mixamorig:LeftArm
					{
						OFFSET 10.592373 -0.524597 -2.232116
						CHANNELS 3 Xrotation Yrotation Zrotation
						JOINT mixamorig:LeftForeArm
						{
							OFFSET 27.841488 0.000000 0.000001
							CHANNELS 3 Xrotation Yrotation Zrotation
							JOINT mixamorig:LeftHand
							{
								OFFSET 28.328808 0.000000 -0.000000
								CHANNELS 3 Xrotation Yrotation Zrotation
								JOINT mixamorig:LeftHandThumb1
								{
									OFFSET 2.466103 -1.576202 2.681698
									CHANNELS 6 Xposition Yposition Zposition Xrotation Yrotation Zrotation
									JOINT mixamorig:LeftHandThumb2
									{
										OFFSET 3.243317 -1.872528 1.872530
										CHANNELS 3 Xrotation Yrotation Zrotation
										JOINT mixamorig:LeftHandThumb3
										{
											OFFSET 2.647881 -1.528763 1.528754
											CHANNELS 6 Xposition Yposition Zposition Xrotation Yrotation Zrotation
											JOINT mixamorig:LeftHandThumb4
											{
												OFFSET 1.998924 -1.154083 1.154080
												CHANNELS 6 Xposition Yposition Zposition Xrotation Yrotation Zrotation
												End Site
												{
													OFFSET 1.884041 -1.149155 1.337651
												}
											}
										}
									}
								}
								JOINT mixamorig:LeftHandIndex1
								{
									OFFSET 9.109299 -0.518005 2.259900
									CHANNELS 6 Xposition Yposition Zposition Xrotation Yrotation Zrotation
									JOINT mixamorig:LeftHandIndex2
									{
										OFFSET 3.699997 0.000000 0.000000
										CHANNELS 3 Xrotation Yrotation Zrotation
										JOINT mixamorig:LeftHandIndex3
										{
											OFFSET 2.850006 0.000000 0.000000
											CHANNELS 3 Xrotation Yrotation Zrotation
											JOINT mixamorig:LeftHandIndex4
											{
												OFFSET 2.774895 0.000000 0.000000
												CHANNELS 3 Xrotation Yrotation Zrotation
												End Site
												{
													OFFSET 2.774902 0.000000 -0.000072
												}
											}
										}
									}
								}
								JOINT mixamorig:LeftHandMiddle1
								{
									OFFSET 9.533401 0.000000 0.000000
									CHANNELS 6 Xposition Yposition Zposition Xrotation Yrotation Zrotation
									JOINT mixamorig:LeftHandMiddle2
									{
										OFFSET 3.699997 0.000000 0.000000
										CHANNELS 3 Xrotation Yrotation Zrotation
										JOINT mixamorig:LeftHandMiddle3
										{
											OFFSET 2.949997 0.000000 0.000000
											CHANNELS 3 Xrotation Yrotation Zrotation
											JOINT mixamorig:LeftHandMiddle4
											{
												OFFSET 2.952896 0.000000 0.000000
												CHANNELS 3 Xrotation Yrotation Zrotation
												End Site
												{
													OFFSET 2.952904 0.000000 0.000165
												}
											}
										}
									}
								}
								JOINT mixamorig:LeftHandRing1
								{
									OFFSET 9.104500 -0.042999 -1.865101
									CHANNELS 6 Xposition Yposition Zposition Xrotation Yrotation Zrotation
									JOINT mixamorig:LeftHandRing2
									{
										OFFSET 3.149994 0.000000 0.000000
										CHANNELS 3 Xrotation Yrotation Zrotation
										JOINT mixamorig:LeftHandRing3
										{
											OFFSET 2.950005 0.000000 0.000000
											CHANNELS 3 Xrotation Yrotation Zrotation
											JOINT mixamorig:LeftHandRing4
											{
												OFFSET 2.644302 0.000000 0.000000
												CHANNELS 3 Xrotation Yrotation Zrotation
												End Site
												{
													OFFSET 2.644302 0.000000 0.000083
												}
											}
										}
									}
								}
								JOINT mixamorig:LeftHandPinky1
								{
									OFFSET 8.077805 -0.486893 -3.806302
									CHANNELS 6 Xposition Yposition Zposition Xrotation Yrotation Zrotation
									JOINT mixamorig:LeftHandPinky2
									{
										OFFSET 3.600006 0.000000 0.000000
										CHANNELS 3 Xrotation Yrotation Zrotation
										JOINT mixamorig:LeftHandPinky3
										{
											OFFSET 2.099998 0.000000 0.000000
											CHANNELS 3 Xrotation Yrotation Zrotation
											JOINT mixamorig:LeftHandPinky4
											{
												OFFSET 2.125496 0.000000 0.000000
												CHANNELS 3 Xrotation Yrotation Zrotation
												End Site
												{
													OFFSET 2.125504 0.000000 -0.001254
												}
											}
										}
									}
								}
							}
						}
					}
				}
			}
		}
	}
	JOINT mixamorig:RightUpLeg
	{
		OFFSET -8.207800 -6.751701 -1.599544
		CHANNELS 6 Xposition Yposition Zposition Xrotation Yrotation Zrotation
		JOINT mixamorig:RightLeg
		{
			OFFSET 0.000004 -44.370152 0.345934
			CHANNELS 3 Xrotation Yrotation Zrotation
			JOINT mixamorig:RightFoot
			{
				OFFSET 0.000004 -44.423664 -3.043535
				CHANNELS 3 Xrotation Yrotation Zrotation
				JOINT mixamorig:RightToeBase
				{
					OFFSET 0.000001 -8.728691 10.710592
					CHANNELS 3 Xrotation Yrotation Zrotation
					JOINT mixamorig:RightToe_End
					{
						OFFSET 0.000000 -0.000665 9.278101
						CHANNELS 3 Xrotation Yrotation Zrotation
						End Site
						{
							OFFSET 0.000000 -0.000665 9.278103
						}
					}
				}
			}
		}
	}
	JOINT mixamorig:LeftUpLeg
	{
		OFFSET 8.207800 -6.751701 -1.599544
		CHANNELS 6 Xposition Yposition Zposition Xrotation Yrotation Zrotation
		JOINT mixamorig:LeftLeg
		{
			OFFSET 0.000004 -44.370037 0.346940
			CHANNELS 3 Xrotation Yrotation Zrotation
			JOINT mixamorig:LeftFoot
			{
				OFFSET 0.000004 -44.423611 -3.044388
				CHANNELS 3 Xrotation Yrotation Zrotation
				JOINT mixamorig:LeftToeBase
				{
					OFFSET 0.000001 -8.728690 10.710592
					CHANNELS 3 Xrotation Yrotation Zrotation
					JOINT mixamorig:LeftToe_End
					{
						OFFSET 0.000000 -0.000680 9.278101
						CHANNELS 3 Xrotation Yrotation Zrotation
						End Site
						{
							OFFSET 0.000000 -0.000680 9.278101
						}
					}
				}
			}
		}
	}
}
MOTION
Frames: 4
Frame Time: 0.033333
1.493772 101.475510 1.826972 -0.383358 -0.119242 -1.655807 0.000000 10.181557 0.131520 -9.201499 1.264257 1.168935 7.246681 -0.041692 -1.878294 7.251811 0.041102 -1.863932 -0.000000 16.740364 -2.049018 2.287007 -1.008078 3.029061 0.000001 9.617873 1.684982 -5.069790 -2.335753 2.401236 0.000000 22.037415 7.501073 -0.000000 -0.000000 0.000000 -4.569997 11.014864 -2.160839 1.709889 -7.765213 12.112729 26.986291 49.483897 49.499843 -0.000031 28.237870 0.000030 -44.984944 -0.074375 -10.368731 -2.464809 -1.573998 2.681911 6.252645 -20.774543 -12.651534 7.504742 -13.862926 0.513159 -2.646264 -1.527789 1.527812 0.120859 -2.489914 -2.005651 -1.994584 -1.151584 1.151568 0.000001 -0.000001 0.000003 -9.108309 -0.517872 2.259805 0.531301 -2.670335 22.501609 0.231302 -1.781966 14.790597 0.058067 -0.898461 7.393507 0.000000 0.000001 0.000001 -9.532504 0.000005 0.000003 0.694386 -3.033789 25.778386 0.351365 -2.186402 18.256942 0.124004 -1.309919 10.814626 0.000000 -0.000000 -0.000000 -9.103607 -0.043105 -1.865098 0.927158 -3.474036 29.877413 0.535532 -2.680538 22.592504 0.240790 -1.817495 15.092631 0.000001 0.000000 0.000002 -8.076704 -0.486706 -3.806296 1.161787 -3.852973 33.548127 0.696621 -3.038430 25.820813 0.357319 -2.204348 18.412237 0.000000 0.000000 0.000001 4.570402 11.014683 -2.160815 0.892940 -0.363510 -11.998599 17.011874 -35.715493 -54.455305 0.000003 -20.409104 0.000004 -23.812336 -1.910443 7.750320 2.466084 -1.576198 2.681697 0.995169 26.049599 8.516746 5.879759 15.710910 1.896489 2.647894 -1.528742 1.528751 0.428047 5.431477 3.294691 1.998917 -1.154083 1.154079 0.000002 -0.000003 -0.000000 9.109282 -0.518012 2.259898 0.318169 2.072864 -17.452339 0.139635 1.382519 -11.535879 0.035007 0.694784 -5.767104 0.000001 -0.000000 0.000001 9.533403 0.000005 -0.000002 0.550495 2.702490 -23.024829 0.318701 2.074478 -17.466377 0.141320 1.390780 -11.605886 0.000000 -0.000002 0.000002 9.104485 -0.043007 -1.865104 0.927553 3.456710 -30.034562 0.639809 2.903410 -24.850766 0.372978 2.239666 -18.909307 0.000001 -0.000000 -0.000001 8.077812 -0.486891 -3.806306 3.744382 7.360257 -36.030628 0.958806 -0.571298 -30.806851 0.626122 2.873720 -24.579370 0.000002 0.000001 -0.000001 -8.207800 -6.751709 -1.599544 -8.571398 -3.695209 1.109398 22.706383 5.783175 -0.536533 -13.595352 -0.040244 -0.861364 -0.000127 -0.000001 0.000000 -0.000000 0.000000 0.000000 8.207798 -6.751705 -1.599544 -8.273909 5.149212 1.448380 24.145291 -6.456981 -0.781503 -15.389926 -1.563241 3.479755 -0.011885 -0.000002 -0.000001 0.000000 -0.000000 0.000000 
1.482775 101.504868 1.736791 -0.584658 -0.253211 -1.579386 -0.000000 10.181547 0.131520 -8.665098 1.098934 1.235035 7.160135 -0.064387 -1.933012 7.165599 0.014902 -1.920002 0.000001 16.740372 -2.049022 2.297907 -0.960557 2.970860 0.000000 9.617860 1.684975 -5.266164 -2.191951 2.428693 -0.000000 22.037354 7.501076 0.000001 -0.000000 -0.000000 -4.570000 11.014856 -2.160841 1.711225 -7.755230 12.112454 26.144605 49.451563 50.002333 -0.000005 27.830931 0.000019 -44.176130 0.035904 -10.380493 -2.464803 -1.573982 2.681911 6.290916 -20.830458 -12.649961 7.504743 -13.862926 0.513159 -2.646264 -1.527808 1.527813 0.120862 -2.489918 -2.005654 -1.994591 -1.151583 1.151573 0.000002 -0.000001 0.000003 -9.108304 -0.517870 2.259804 0.532425 -2.673054 22.525873 0.232096 -1.785004 14.816410 0.058265 -0.900012 7.406387 -0.000001 0.000002 0.000003 -9.532500 -0.000006 0.000000 0.703119 -3.051844 25.783537 0.351647 -2.187277 18.264544 0.118988 -1.310235 10.809417 -0.000000 0.000001 0.000004 -9.103601 -0.043109 -1.865102 0.947807 -3.509973 29.858961 0.534833 -2.678833 22.577344 0.234093 -1.815822 15.064862 -0.000001 0.000000 0.000002 -8.076709 -0.486707 -3.806300 1.195273 -3.903468 33.508840 0.694942 -3.034920 25.788651 0.355576 -2.199137 18.367191 -0.000001 0.000001 0.000000 4.570404 11.014681 -2.160818 0.900096 -0.376476 -11.998563 16.683533 -35.918971 -54.587763 -0.000016 -19.442499 -0.000001 -27.525263 -1.511250 7.498691 2.466083 -1.576208 2.681699 1.067213 26.108880 8.501759 5.890872 15.715688 1.878149 2.647885 -1.528760 1.528756 0.433148 5.434042 3.286404 1.998918 -1.154065 1.154082 0.000002 -0.000000 -0.000004 9.109291 -0.518013 2.259900 0.352009 2.177497 -18.364746 0.140150 1.385033 -11.557205 0.035132 0.696062 -5.777764 0.000002 0.000001 0.000000 9.533384 0.000008 -0.000001 0.603267 2.823353 -23.917311 0.318744 2.074703 -17.468292 0.141135 1.389783 -11.597380 0.000001 -0.000000 -0.000003 9.104481 -0.042999 -1.865101 1.008802 3.593719 -30.903003 0.638669 2.900973 -24.828400 0.371714 2.235969 -18.876858 0.000000 -0.000000 0.000001 8.077803 -0.486889 -3.806302 3.904274 7.471167 -36.888752 0.956316 -0.575481 -30.766584 0.623559 2.868133 -24.528266 0.000000 -0.000002 0.000002 -8.207800 -6.751711 -1.599544 -8.426723 -2.979778 1.090910 22.654599 5.171564 -0.404310 -13.523004 0.042615 -0.788515 -0.000079 -0.000000 -0.000004 -0.000000 0.000000 0.000000 8.207799 -6.751704 -1.599543 -8.026861 5.738129 1.308784 23.964823 -6.418190 -0.756322 -15.305670 -0.771131 3.573228 -0.014010 0.000000 0.000001 -0.000000 0.000000 0.000000 
1.469667 101.524742 1.620524 -0.836702 -0.178248 -1.656417 -0.000000 10.181556 0.131524 -7.567086 0.912550 1.361464 6.797944 -0.075015 -1.954508 6.803192 -0.004008 -1.943413 0.000001 16.740374 -2.049019 2.338936 -0.940425 2.930108 0.000001 9.617808 1.684981 -5.508479 -2.208565 2.558439 -0.000001 22.037384 7.501073 -0.000000 -0.000000 -0.000000 -4.570002 11.014881 -2.160839 1.711329 -7.701031 12.110891 26.106422 49.359151 49.943692 -0.000028 28.006151 0.000053 -43.695439 0.091146 -10.289272 -2.464787 -1.574008 2.681906 6.307731 -20.855038 -12.649253 7.504740 -13.862924 0.513155 -2.646256 -1.527795 1.527814 0.120864 -2.489919 -2.005654 -1.994576 -1.151581 1.151573 0.000004 -0.000004 -0.000000 -9.108293 -0.517872 2.259804 0.532900 -2.674231 22.536276 0.232468 -1.786365 14.827999 0.058347 -0.900717 7.412181 0.000001 0.000000 0.000003 -9.532486 0.000011 -0.000001 0.725137 -3.097504 25.738724 0.350088 -2.182542 18.223445 0.104046 -1.307339 10.762952 -0.000000 0.000000 0.000001 -9.103586 -0.043107 -1.865101 1.003631 -3.607643 29.745969 0.529834 -2.666820 22.470376 0.214058 -1.807156 14.953215 0.000001 0.000000 -0.000001 -8.076694 -0.486716 -3.806298 1.287498 -4.043692 33.335725 0.686697 -3.017837 25.632641 0.349398 -2.180467 18.205606 0.000001 0.000002 -0.000001 4.570402 11.014688 -2.160813 0.909960 -0.370378 -11.998526 15.728548 -35.116472 -55.023577 0.000006 -19.279179 0.000019 -32.087942 -0.799323 6.993386 2.466097 -1.576209 2.681696 1.101421 26.136989 8.494582 5.896377 15.718051 1.869034 2.647893 -1.528753 1.528752 0.435685 5.435308 3.282268 1.998906 -1.154081 1.154083 0.000002 0.000001 -0.000002 9.109304 -0.518012 2.259899 0.353378 2.181672 -18.401213 0.140397 1.386166 -11.566793 0.035170 0.696630 -5.782559 0.000001 0.000001 0.000002 9.533414 -0.000004 -0.000002 0.630651 2.885105 -23.893904 0.317072 2.069355 -17.421830 0.139897 1.383813 -11.546878 -0.000001 -0.000001 -0.000001 9.104506 -0.043005 -1.865102 1.083896 3.719570 -30.806533 0.632781 2.888227 -24.711819 0.367059 2.222317 -18.757158 0.000000 -0.000000 0.000000 8.077803 -0.486887 -3.806303 4.026995 7.651352 -36.735657 0.945955 -0.592944 -30.598418 0.614910 2.849124 -24.354817 -0.000001 -0.000000 -0.000000 -8.207800 -6.751705 -1.599543 -8.180730 -2.184214 1.235793 22.526737 4.393228 -0.193062 -13.423092 0.030004 -0.743926 -0.000016 0.000000 0.000004 -0.000000 0.000000 0.000000 8.207800 -6.751700 -1.599543 -7.862098 5.848412 1.349240 23.989778 -6.152097 -0.739848 -15.277692 -0.534455 3.543178 -0.019603 -0.000000 -0.000000 -0.000000 0.000000 0.000000 
1.466355 101.558083 1.437021 -1.083632 0.045188 -1.810045 -0.000000 10.181547 0.131523 -5.922858 0.762556 1.604974 6.147221 -0.068799 -1.997317 6.152125 -0.009500 -1.988001 -0.000002 16.740379 -2.049020 2.432243 -0.947325 2.911382 0.000001 9.617832 1.684973 -5.718298 -2.363931 2.748414 0.000000 22.037354 7.501072 -0.000000 0.000000 -0.000000 -4.569999 11.014858 -2.160840 1.709872 -7.625913 12.108694 26.820075 49.141606 49.325065 -0.000014 28.832397 0.000037 -43.145520 -0.029957 -9.965936 -2.464804 -1.573984 2.681907 6.310504 -20.859094 -12.649150 7.504743 -13.862924 0.513157 -2.646264 -1.527808 1.527811 0.120860 -2.489918 -2.005654 -1.994587 -1.151586 1.151573 -0.000001 0.000004 0.000005 -9.108300 -0.517878 2.259799 0.532927 -2.674277 22.536768 0.232505 -1.786545 14.829457 0.058361 -0.900799 7.412939 0.000001 0.000001 0.000001 -9.532486 -0.000010 -0.000001 0.759357 -3.168909 25.650804 0.346938 -2.172943 18.140527 0.080704 -1.301491 10.679968 -0.000002 0.000000 0.000002 -9.103598 -0.043098 -1.865104 1.091145 -3.762799 29.548962 0.521102 -2.645626 22.281954 0.182602 -1.791882 14.765891 0.000000 -0.000000 0.000002 -8.076690 -0.486722 -3.806302 1.432170 -4.267776 33.042645 0.672723 -2.988564 25.365796 0.339300 -2.149552 17.938380 0.000000 0.000001 -0.000000 4.570401 11.014686 -2.160816 0.922080 -0.307219 -11.998464 14.274311 -33.641322 -55.552022 0.000015 -19.857517 0.000001 -37.718132 0.227179 6.523794 2.466073 -1.576205 2.681705 1.109863 26.143929 8.492802 5.897997 15.718740 1.866397 2.647886 -1.528766 1.528757 0.436421 5.435672 3.281053 1.998921 -1.154068 1.154075 -0.000000 0.000004 0.000001 9.109283 -0.518016 2.259902 0.345272 2.157130 -18.186767 0.140386 1.386202 -11.567133 0.035183 0.696653 -5.782693 0.000001 -0.000001 0.000002 9.533397 0.000002 0.000002 0.660227 2.954143 -23.583521 0.313839 2.059066 -17.332380 0.137791 1.373392 -11.458645 0.000001 0.000000 0.000003 9.104482 -0.042999 -1.865098 1.184458 3.894032 -30.379100 0.622667 2.866171 -24.510303 0.359399 2.199618 -18.558333 0.000000 -0.000000 0.000002 8.077802 -0.486894 -3.806302 4.183066 7.927929 -36.214909 0.928586 -0.622473 -30.314756 0.600842 2.817869 -24.070085 -0.000000 -0.000001 0.000001 -8.207799 -6.751722 -1.599543 -7.898439 -1.914121 1.431352 22.287411 4.001106 -0.094149 -13.228021 0.021211 -0.727942 -0.003116 -0.000000 -0.000000 -0.000000 -0.000000 -0.000000 8.207798 -6.751711 -1.599545 -7.777550 5.586499 1.425956 24.057728 -5.846569 -0.675882 -15.200096 -0.483908 3.449868 -0.008172 -0.000000 -0.000000 0.000000 0.000000 0.000000 
